<svg width="415" height="85" viewBox="0 0 415 85" fill="none" xmlns="http://www.w3.org/2000/svg">
<path d="M1 34.2V25.9L14.7915 16.1353L19.2644 17.6L32.6832 16.1353L53.5569 13.6941L113.941 8.81176L255.584 2.95294L354.361 1L396.854 3.44118L414 8.32353V18.5765L412.509 25.9H397.972V31.2706H384.181L382.69 40.0588H380.826L378.962 48.8471H373.744L371.88 56.1706H356.225V60.0765L374.862 63.0059L373.744 80.0941H276.458L220.919 82.0471L160.534 77.1647L111.705 74.7235L74.0578 81.0706L37.9016 84L34.5469 79.1176V72.2824H42.7473V55.6824H32.6832V47.3824L46.4747 42.0118L45.3565 37.6176L5.10018 42.0118V32.2471L1 34.2Z" fill="#3822E4" stroke="#3822E4"/>
</svg>
