<svg width="165" height="165" viewBox="0 0 165 165" fill="none" xmlns="http://www.w3.org/2000/svg">
<path d="M40.2518 84.6969L7.36675 69.0951L43.6331 65.9979L46.7064 65.7355L44.9541 63.1972L24.2757 33.2431L57.2319 48.694L60.0246 50.0034L59.7762 46.929L56.8452 10.6488L77.6606 40.5078L79.4245 43.0381L80.7466 40.2514L96.3484 7.36632L99.4456 43.6327L99.708 46.7059L102.246 44.9536L132.2 24.2752L116.749 57.2314L115.44 60.0241L118.515 59.7758L154.795 56.8448L124.936 77.6602L122.405 79.4241L125.192 80.7462L158.077 96.348L121.811 99.4451L118.738 99.7076L120.49 102.246L141.168 132.2L108.212 116.749L105.419 115.44L105.668 118.514L108.599 154.794L87.7833 124.935L86.0194 122.405L84.6973 125.192L69.0955 158.077L65.9984 121.81L65.7359 118.737L63.1976 120.489L33.2435 141.168L48.6945 108.212L50.0038 105.419L46.9294 105.667L10.6492 108.598L40.5083 87.7829L43.0385 86.019L40.2518 84.6969Z" fill="#BCED09" stroke="#BCED09" stroke-width="3.58043"/>
</svg>
