<svg width="165" height="165" viewBox="0 0 165 165" fill="none" xmlns="http://www.w3.org/2000/svg">
<path d="M39.8798 84.3258L6.99468 68.724L43.2611 65.6268L46.3343 65.3644L44.582 62.8261L23.9036 32.872L56.8598 48.323L59.6525 49.6323L59.4041 46.5579L56.4731 10.2777L77.2885 40.1367L79.0524 42.667L80.3745 39.8803L95.9763 6.99523L99.0735 43.2616L99.3359 46.3348L101.874 44.5825L131.828 23.9041L116.377 56.8603L115.068 59.653L118.142 59.4047L154.423 56.4737L124.564 77.2891L122.033 79.053L124.82 80.3751L157.705 95.9769L121.439 99.074L118.365 99.3365L120.118 101.875L140.796 131.829L107.84 116.378L105.047 115.069L105.296 118.143L108.227 154.423L87.4112 124.564L85.6473 122.034L84.3252 124.821L68.7234 157.706L65.6263 121.439L65.3638 118.366L62.8255 120.118L32.8714 140.797L48.3224 107.841L49.6317 105.048L46.5573 105.296L10.2771 108.227L40.1362 87.4118L42.6664 85.6479L39.8798 84.3258Z" fill="#3822E4" stroke="#3822E4" stroke-width="3.58043"/>
</svg>
