<svg width="93" height="91" viewBox="0 0 93 91" fill="none" xmlns="http://www.w3.org/2000/svg">
<g filter="url(#filter0_d_438_2)">
<ellipse cx="39.5003" cy="40.5" rx="38.9397" ry="39.5" fill="#3822E4"/>
</g>
<path d="M14.891 57.9424L11.94 48.5824H13.552L16.022 56.4214L18.5245 48.5824H20.1365L17.1855 57.9424H14.891ZM21.1131 57.9424V48.5824H27.1581V50.0514H22.6796V52.3589H26.3781V53.8279H22.6796V56.4734H27.1581V57.9424H21.1131ZM28.7176 57.9424V48.5824H32.5851C32.6761 48.5824 32.7931 48.5867 32.9361 48.5954C33.0791 48.5997 33.2113 48.6127 33.3326 48.6344C33.8743 48.7167 34.3206 48.8965 34.6716 49.1739C35.027 49.4512 35.2891 49.8022 35.4581 50.2269C35.6315 50.6472 35.7181 51.1152 35.7181 51.6309C35.7181 52.3935 35.5253 53.05 35.1396 53.6004C34.754 54.1464 34.1625 54.4844 33.3651 54.6144L32.6956 54.6729H30.2841V57.9424H28.7176ZM34.0931 57.9424L32.2471 54.1334L33.8396 53.7824L35.8676 57.9424H34.0931ZM30.2841 53.2104H32.5201C32.6068 53.2104 32.7043 53.206 32.8126 53.1974C32.921 53.1887 33.0206 53.1714 33.1116 53.1454C33.3716 53.0804 33.5753 52.9655 33.7226 52.8009C33.8743 52.6362 33.9805 52.4499 34.0411 52.2419C34.1061 52.0339 34.1386 51.8302 34.1386 51.6309C34.1386 51.4315 34.1061 51.2279 34.0411 51.0199C33.9805 50.8075 33.8743 50.619 33.7226 50.4544C33.5753 50.2897 33.3716 50.1749 33.1116 50.1099C33.0206 50.0839 32.921 50.0687 32.8126 50.0644C32.7043 50.0557 32.6068 50.0514 32.5201 50.0514H30.2841V53.2104ZM39.9022 57.9424V48.5824H41.3127L44.5497 55.2124L47.7867 48.5824H49.1972V57.9424H47.7347V51.9429L44.8617 57.9424H44.2377L41.3712 51.9429V57.9424H39.9022ZM55.2288 47.5749H54.0393L55.0403 45.1699H56.2298L55.2288 47.5749ZM50.3733 57.9424L53.3243 48.5824H55.6188L58.5698 57.9424H56.9578L54.2798 49.5444H54.6308L51.9853 57.9424H50.3733ZM52.0178 55.9144V54.4519H56.9318V55.9144H52.0178ZM62.9556 58.1374C62.2709 58.1374 61.6534 58.0182 61.1031 57.7799C60.5571 57.5415 60.1064 57.2014 59.7511 56.7594C59.4001 56.313 59.1769 55.7844 59.0816 55.1734L60.7066 54.9264C60.8452 55.481 61.1291 55.91 61.5581 56.2134C61.9914 56.5167 62.4897 56.6684 63.0531 56.6684C63.3867 56.6684 63.7009 56.6164 63.9956 56.5124C64.2902 56.4084 64.5286 56.2567 64.7106 56.0574C64.8969 55.858 64.9901 55.6132 64.9901 55.3229C64.9901 55.1929 64.9684 55.0737 64.9251 54.9654C64.8817 54.8527 64.8167 54.753 64.7301 54.6664C64.6477 54.5797 64.5394 54.5017 64.4051 54.4324C64.2751 54.3587 64.1234 54.2959 63.9501 54.2439L61.5321 53.5289C61.3241 53.4682 61.0987 53.388 60.8561 53.2884C60.6177 53.1844 60.3902 53.0435 60.1736 52.8659C59.9612 52.6839 59.7857 52.4542 59.6471 52.1769C59.5127 51.8952 59.4456 51.5485 59.4456 51.1369C59.4456 50.5345 59.5972 50.0297 59.9006 49.6224C60.2082 49.2107 60.6199 48.903 61.1356 48.6994C61.6556 48.4957 62.2319 48.396 62.8646 48.4004C63.5059 48.4047 64.0779 48.5152 64.5806 48.7319C65.0832 48.9442 65.5036 49.254 65.8416 49.6614C66.1796 50.0687 66.4179 50.5605 66.5566 51.1369L64.8731 51.4294C64.8037 51.1 64.6694 50.8205 64.4701 50.5909C64.2751 50.3569 64.0346 50.1792 63.7486 50.0579C63.4669 49.9365 63.1657 49.8715 62.8451 49.8629C62.5331 49.8585 62.2427 49.9062 61.9741 50.0059C61.7097 50.1012 61.4952 50.2399 61.3306 50.4219C61.1702 50.6039 61.0901 50.8162 61.0901 51.0589C61.0901 51.2885 61.1594 51.477 61.2981 51.6244C61.4367 51.7674 61.6079 51.8822 61.8116 51.9689C62.0196 52.0512 62.2297 52.1205 62.4421 52.1769L64.1191 52.6449C64.3487 52.7055 64.6066 52.7879 64.8926 52.8919C65.1786 52.9959 65.4537 53.141 65.7181 53.3274C65.9824 53.5137 66.1991 53.7585 66.3681 54.0619C66.5414 54.3652 66.6281 54.7509 66.6281 55.2189C66.6281 55.7042 66.5262 56.131 66.3226 56.4994C66.1232 56.8634 65.8524 57.1667 65.5101 57.4094C65.1677 57.652 64.7756 57.834 64.3336 57.9554C63.8959 58.0767 63.4366 58.1374 62.9556 58.1374Z" fill="#BCED09"/>
<path d="M52.7465 26.8057C53.4105 27.6866 53.4105 28.8759 52.7465 29.7554C50.6553 32.5246 45.6379 38.2266 39.7802 38.2266C33.9224 38.2266 28.9051 32.5246 26.8138 29.7554C26.4908 29.3336 26.3154 28.8146 26.3154 28.2805C26.3154 27.7464 26.4908 27.2275 26.8138 26.8057C28.9051 24.0364 33.9224 18.3345 39.7802 18.3345C45.6379 18.3345 50.6553 24.0364 52.7465 26.8057V26.8057Z" stroke="#BCED09" stroke-width="2" stroke-linecap="round" stroke-linejoin="round"/>
<path d="M39.7803 32.5432C42.101 32.5432 43.9824 30.6348 43.9824 28.2807C43.9824 25.9265 42.101 24.0181 39.7803 24.0181C37.4595 24.0181 35.5781 25.9265 35.5781 28.2807C35.5781 30.6348 37.4595 32.5432 39.7803 32.5432Z" stroke="#BCED09" stroke-width="2" stroke-linecap="round" stroke-linejoin="round"/>
<defs>
<filter id="filter0_d_438_2" x="0.560547" y="0" width="91.8799" height="91" filterUnits="userSpaceOnUse" color-interpolation-filters="sRGB">
<feFlood flood-opacity="0" result="BackgroundImageFix"/>
<feColorMatrix in="SourceAlpha" type="matrix" values="0 0 0 0 0 0 0 0 0 0 0 0 0 0 0 0 0 0 127 0" result="hardAlpha"/>
<feOffset dx="8" dy="5"/>
<feGaussianBlur stdDeviation="3"/>
<feComposite in2="hardAlpha" operator="out"/>
<feColorMatrix type="matrix" values="0 0 0 0 0.219608 0 0 0 0 0.133333 0 0 0 0 0.894118 0 0 0 0.7 0"/>
<feBlend mode="normal" in2="BackgroundImageFix" result="effect1_dropShadow_438_2"/>
<feBlend mode="normal" in="SourceGraphic" in2="effect1_dropShadow_438_2" result="shape"/>
</filter>
</defs>
</svg>
