<svg width="162" height="162" viewBox="0 0 162 162" fill="none" xmlns="http://www.w3.org/2000/svg">
<path d="M103.379 44.4807L137.476 24.8983L117.894 58.996L117.036 60.4901L118.759 60.4941L158.079 60.5841L124.072 80.3224L122.582 81.1873L124.072 82.0522L158.079 101.79L118.759 101.881L117.036 101.885L117.894 103.379L137.476 137.476L103.379 117.894L101.884 117.036L101.881 118.759L101.79 158.079L82.0522 124.072L81.1873 122.582L80.3224 124.072L60.5841 158.079L60.4941 118.759L60.4901 117.036L58.996 117.894L24.8983 137.476L44.4807 103.379L45.3387 101.884L43.6158 101.881L4.29514 101.79L38.3028 82.0522L39.7929 81.1873L38.3028 80.3224L4.29516 60.5841L43.6158 60.4941L45.3387 60.4901L44.4807 58.996L24.8983 24.8983L58.996 44.4807L60.4901 45.3387L60.4941 43.6158L60.5841 4.29515L80.3224 38.3028L81.1873 39.7929L82.0522 38.3028L101.791 4.29516L101.881 43.6158L101.885 45.3387L103.379 44.4807Z" fill="#3822E4" stroke="#BCED09" stroke-width="2"/>
</svg>
