<svg width="163" height="163" viewBox="0 0 163 163" fill="none" xmlns="http://www.w3.org/2000/svg">
<path d="M103.3 44.5372L137.226 24.6581L117.942 58.9254L117.097 60.4269L118.82 60.4158L158.14 60.1627L124.306 80.1971L122.823 81.0749L124.321 81.9268L158.499 101.368L119.181 101.801L117.458 101.82L118.329 103.306L138.208 137.232L103.941 117.948L102.44 117.103L102.451 118.826L102.704 158.146L82.6694 124.311L81.7915 122.829L80.9397 124.327L61.4989 158.505L61.0657 119.187L61.0468 117.464L59.5602 118.335L25.6347 138.214L44.9187 103.947L45.7637 102.445L44.0408 102.456L4.72089 102.71L38.555 82.6752L40.0375 81.7974L38.5399 80.9455L4.36132 61.5047L43.6797 61.0715L45.4025 61.0526L44.5314 59.566L24.6523 25.6405L58.9196 44.9245L60.4211 45.7695L60.41 44.0466L60.1569 4.7267L80.1913 38.5608L81.0691 40.0433L81.9209 38.5457L101.362 4.36713L101.795 43.6855L101.814 45.4083L103.3 44.5372Z" fill="#1E1E24" stroke="#BCED09" stroke-width="2"/>
</svg>
